
        <svg xmlns="http://www.w3.org/2000/svg" xmlns:xlink="http://www.w3.org/1999/xlink" version="1.1" width="3162.208309618669" height="1057.7032565489728" viewBox="0 0 3162.208309618669 1057.7032565489728">
			
			<g transform="scale(8.11041548093341) translate(10, 10)">
				<defs id="SvgjsDefs2326"/><g id="SvgjsG2327" featureKey="symbolFeature-0" transform="matrix(2.1645454465414433,0,0,2.1645454465414433,-18.884035265191592,-9.730139345255388)" fill="#000"><path xmlns="http://www.w3.org/2000/svg" d="M41.008,14.763c-10.35-10.35-24.103-13.38-30.717-6.765C10.086,8.203,9.998,8.516,9.981,8.89  c2.22,0.533,4.282,1.631,5.964,3.312c2.944,2.945,4.1,7.054,3.55,11.145c3.205-0.015,6.3,1.041,8.722,3.197L9.871,44.893  c-1.529,1.529-1.529,4.017,0,5.546c1.53,1.53,4.017,1.53,5.547,0l-1.008-1.008c-0.973,0.972-2.557,0.972-3.53,0  c-0.973-0.973-0.973-2.557,0-3.53l18.349-18.349c2.038,2.29,3.102,5.179,3.198,8.196c4.297-0.763,8.677,0.352,11.772,3.448  c1.788,1.789,2.905,4.009,3.394,6.39c0.058-0.037,0.133-0.056,0.181-0.105C54.388,38.866,51.358,25.114,41.008,14.763z"/><polygon xmlns="http://www.w3.org/2000/svg" points="34.55,40.41 30.433,40.41 30.433,45.899 24.944,45.899 24.944,50.015 30.433,50.015 30.433,55.505 34.55,55.505   34.55,50.015 40.038,50.015 40.038,45.899 34.55,45.899 "/></g><g id="SvgjsG2328" featureKey="nameFeature-0" transform="matrix(1.5095688502125468,0,0,1.5095688502125468,107.65244153863142,15.88517379744944)" fill="#000"><path d="M16.28 30.4 l6.4 0 l0 4.6 c0 2.76 -2.24 5 -5 5 l-9.8 0 c-2.76 0 -5 -2.24 -5 -5 l0 -18 c0 -2.76 2.24 -5 5 -5 l9.8 0 c2.76 0 5 2.24 5 5 l0 4.6 l-6.4 0 l0 -3.16 l-7 0 l0 15.16 l7 0 l0 -3.2 z M43.28 12 c2.72 0 5.04 2.24 5.04 5 l-0.08 18.04 c0 2.76 -2.24 4.96 -5 4.96 l-9.84 0 c-2.72 0 -4.96 -2.2 -4.96 -4.96 l0 -18.04 c0 -2.76 2.24 -5 4.96 -5 l9.88 0 z M41.84 33.6 l0 -15.16 l-7 0 l0 15.16 l7 0 z M65 28.48 l4.6 -16.48 l6.4 0 l-7.8 28 l-6.4 0 l-7.8 -28 l6.4 0 z M99.36000000000001 18.44 l-11.2 0 l0 4.36 l8.04 0 l0 6.4 l-8.04 0 l0 4.4 l11.2 0 l0 6.4 l-17.6 0 l0 -28 l17.6 0 l0 6.44 z M119.92000000000002 12 c2.76 0 5 2.24 5 5 l0 10.52 c0 2.12 -1.32 3.92 -3.16 4.64 l3.16 7.84 l-6.8 0 l-3.04 -7.48 l-3.56 0 l0 7.48 l-6.4 0 l0 -28 l14.8 0 z M117.20000000000002 26.08 c0.72 0 1.32 -0.56 1.32 -1.28 l0 -5.08 c0 -0.72 -0.6 -1.28 -1.32 -1.28 l-5.68 0 l0 7.64 l5.68 0 z M148.16 18.44 l-11.2 0 l0 4.36 l8.04 0 l0 6.4 l-8.04 0 l0 4.4 l11.2 0 l0 6.4 l-17.6 0 l0 -28 l17.6 0 l0 6.44 z M168.76000000000002 12 c2.72 0 4.96 2.24 4.96 5 l0 18 c0 2.76 -2.24 5 -4.96 5 l-14.84 0 l0 -28 l14.84 0 z M167.32000000000002 32.24 l0 -12.48 c0 -0.76 -0.6 -1.32 -1.32 -1.32 l-5.68 0 l0 15.16 l5.68 0 c0.72 0 1.32 -0.6 1.32 -1.36 z"/></g>
			</g>
		</svg>
	